<?xml version="1.0" standalone="no"?><!DOCTYPE svg PUBLIC "-//W3C//DTD SVG 1.1//EN" "http://www.w3.org/Graphics/SVG/1.1/DTD/svg11.dtd"><svg t="1648977183484" class="icon" viewBox="0 0 1024 1024" version="1.1" xmlns="http://www.w3.org/2000/svg" p-id="2767" xmlns:xlink="http://www.w3.org/1999/xlink" width="32" height="32"><defs><style type="text/css">@font-face { font-family: feedback-iconfont; src: url("//at.alicdn.com/t/font_1031158_u69w8yhxdu.woff2?t=1630033759944") format("woff2"), url("//at.alicdn.com/t/font_1031158_u69w8yhxdu.woff?t=1630033759944") format("woff"), url("//at.alicdn.com/t/font_1031158_u69w8yhxdu.ttf?t=1630033759944") format("truetype"); }
</style></defs><path d="M237.568 146.944m-146.944 0a146.944 146.944 0 1 0 293.888 0 146.944 146.944 0 1 0-293.888 0Z" fill="#70BBEF" p-id="2768"></path><path d="M786.432 146.944m-146.944 0a146.944 146.944 0 1 0 293.888 0 146.944 146.944 0 1 0-293.888 0Z" fill="#70BBEF" p-id="2769"></path><path d="M512 1024a247.552 247.552 0 0 1-245.248-279.296L307.2 435.2h409.6l40.448 309.504A247.552 247.552 0 0 1 512 1024z" fill="#70BBEF" p-id="2770"></path><path d="M179.2 316.416a332.8 307.2 0 1 0 665.6 0 332.8 307.2 0 1 0-665.6 0Z" fill="#94CFF7" p-id="2771"></path><path d="M512 9.216c-183.808 0-332.8 137.472-332.8 307.2a293.632 293.632 0 0 0 89.088 208.64 350.464 350.464 0 0 0 186.88 52.992c183.808 0 332.8-137.472 332.8-307.2a292.608 292.608 0 0 0-89.088-208.64A349.696 349.696 0 0 0 512 9.216z" fill="#AAD6F9" p-id="2772"></path><path d="M443.392 713.984c39.424 74.496 14.336 112.896-29.184 135.936s-89.6 22.272-128-52.48-57.6-194.816-13.824-217.856 131.584 60.416 171.008 134.4zM580.608 713.984c-39.424 74.496-14.336 112.896 29.184 135.936s89.6 22.272 128-52.48 57.6-194.816 13.824-217.856-131.584 60.416-171.008 134.4z" fill="#94CFF7" p-id="2773"></path><path d="M580.352 678.4A80.896 80.896 0 0 0 512 716.8a80.896 80.896 0 0 0-68.352-38.656 66.048 66.048 0 0 0-68.096 68.608 115.456 115.456 0 0 0 47.616 89.344A300.544 300.544 0 0 0 512 883.2a300.544 300.544 0 0 0 88.832-46.848 115.456 115.456 0 0 0 47.616-89.344 66.048 66.048 0 0 0-68.096-68.608z" fill="#F0A0F2" p-id="2774"></path><path d="M644.864 723.712a64.768 64.768 0 0 0-64.512-45.312A80.896 80.896 0 0 0 512 716.8a80.896 80.896 0 0 0-68.352-38.656 66.048 66.048 0 0 0-68.096 68.608 115.456 115.456 0 0 0 47.616 89.344 149.504 149.504 0 0 0 16.384 12.032h4.096c99.84 0.512 182.784-53.248 201.216-124.416z" fill="#F5AEF4" p-id="2775"></path><path d="M406.528 723.712m-7.936 0a7.936 7.936 0 1 0 15.872 0 7.936 7.936 0 1 0-15.872 0Z" fill="#FFFFFF" p-id="2776"></path><path d="M394.24 748.8c1.536-9.472 8.192-11.52 11.52-7.68s-2.304 9.984 2.048 30.976a311.296 311.296 0 0 0 12.288 34.816c0 3.84-14.336-12.544-21.248-28.928a55.04 55.04 0 0 1-4.608-29.184z" fill="#FFFFFF" p-id="2777"></path><path d="M360.704 780.8c46.592 80.896 47.616 197.376-13.568 232.704s-161.536-23.808-208.128-104.704-22.272-153.6 38.912-188.416 135.936-20.48 182.784 60.416zM663.296 780.8c-46.592 80.896-47.616 197.376 13.568 232.704s161.536-23.808 208.128-104.704 22.272-153.6-38.912-188.416-135.936-20.48-182.784 60.416z" fill="#AAD6F9" p-id="2778"></path><path d="M371.2 236.288m25.6 0l0 0q25.6 0 25.6 25.6l0 38.4q0 25.6-25.6 25.6l0 0q-25.6 0-25.6-25.6l0-38.4q0-25.6 25.6-25.6Z" fill="#70BBEF" p-id="2779"></path><path d="M601.6 236.288m25.6 0l0 0q25.6 0 25.6 25.6l0 38.4q0 25.6-25.6 25.6l0 0q-25.6 0-25.6-25.6l0-38.4q0-25.6 25.6-25.6Z" fill="#70BBEF" p-id="2780"></path><path d="M473.6 389.632a38.4 25.6 0 1 0 76.8 0 38.4 25.6 0 1 0-76.8 0Z" fill="#70BBEF" p-id="2781"></path></svg>